<?xml version="1.0" standalone="no"?>
<!DOCTYPE svg PUBLIC "-//W3C//DTD SVG 20010904//EN"
 "http://www.w3.org/TR/2001/REC-SVG-20010904/DTD/svg10.dtd">
<svg version="1.0" xmlns="http://www.w3.org/2000/svg"
 width="150.000000pt" height="150.000000pt" viewBox="0 0 150.000000 150.000000"
 preserveAspectRatio="xMidYMid meet">
<metadata>
Created by potrace 1.14, written by Peter Selinger 2001-2017
</metadata>
<g transform="translate(0.000000,150.000000) scale(0.100000,-0.100000)"
fill="#000000" stroke="none">
<path d="M607 1435 c-26 -7 -50 -13 -52 -14 -3 -1 -18 -4 -35 -7 -16 -4 -30
-10 -30 -15 0 -5 -9 -9 -19 -9 -11 0 -23 -5 -26 -10 -4 -6 -10 -8 -14 -6 -4 3
-17 -4 -29 -14 -12 -11 -25 -20 -29 -20 -38 -1 -236 -216 -236 -257 0 -7 -3
-13 -7 -13 -7 0 -35 -71 -32 -82 1 -5 -2 -8 -8 -8 -6 0 -9 -3 -8 -7 0 -5 -1
-15 -5 -23 -29 -78 -34 -250 -9 -353 8 -34 15 -68 15 -74 0 -7 4 -13 9 -13 4
0 7 -3 6 -7 -3 -12 51 -123 67 -140 8 -8 15 -18 15 -22 0 -4 18 -27 40 -52 22
-24 40 -48 40 -52 0 -5 4 -5 10 -2 5 3 15 -3 22 -15 7 -11 16 -20 20 -20 4 0
19 -11 34 -25 14 -13 30 -22 35 -19 5 3 9 1 9 -5 0 -11 102 -61 125 -61 8 0
15 -4 15 -8 0 -4 14 -9 31 -10 17 -1 40 -7 51 -13 28 -15 283 -14 283 1 0 1
16 4 35 7 19 2 37 8 40 11 3 4 14 9 25 10 11 2 41 15 67 28 26 13 50 23 53 22
2 -2 11 6 19 17 9 11 16 16 16 10 0 -5 7 1 16 13 8 12 20 20 25 17 5 -4 9 1 9
9 0 9 3 15 8 13 9 -3 106 96 110 112 1 7 14 24 27 39 14 15 25 35 25 44 0 10
4 18 9 18 8 0 22 36 26 65 0 6 5 9 10 8 6 -1 11 14 12 34 1 19 6 40 12 47 6 7
8 16 4 19 -3 4 0 14 8 24 9 11 10 14 2 9 -7 -4 -13 -3 -13 3 0 5 4 12 8 15 5
3 7 49 6 103 -3 99 -5 111 -17 148 -3 11 -8 31 -11 45 -2 14 -9 39 -16 55 -6
17 -11 32 -10 34 1 2 -3 7 -9 11 -6 3 -14 17 -16 31 -3 13 -9 25 -15 27 -5 2
-10 10 -10 18 0 9 -4 12 -10 9 -5 -3 -10 0 -10 8 0 8 -14 28 -30 46 -17 17
-28 31 -26 31 2 0 -12 16 -31 35 -19 19 -39 35 -44 35 -5 0 -9 3 -9 8 0 10
-79 58 -92 54 -5 -1 -7 2 -3 8 5 9 -1 12 -21 9 -4 0 -10 3 -13 8 -9 14 -80 40
-153 57 -77 18 -235 18 -301 1z"/>
</g>
</svg>
